<svg xmlns="http://www.w3.org/2000/svg" width="714.106" height="325.529"><path d="m1334.94 912.04-20.335 91.21c-8.222 36.887-56.69 64.381-110.985 63.745l-283.24-3.31-120.91 51.12 29.701-52.187-61.876-.726c-48.437-.565-85.954-30.668-81.753-65.452l12.37-102.377c3.849-31.874 40.229-57.339 84.32-58.402l440.197-10.62c70.632-1.702 123.25 38.845 112.511 87" style="fill:#fff;fill-opacity:1;fill-rule:nonzero;stroke:none;stroke-width:.0413762" transform="translate(-661.273 -803.125)"/><path d="M1343.632 916.848c-2.489 11.078-4.972 22.157-7.46 33.236-3.582 15.975-7.17 31.95-10.757 47.925-.79 3.532-1.574 7.064-2.375 10.593-2.694 11.822-8.85 23.205-19.933 33.53-15.122 14.087-39.13 25.916-68.624 29.815-13.131 1.738-26.422 1.286-39.776 1.129l-69.706-.81c-17.937-.206-35.868-.417-53.8-.624l-87.487-1.016c-14.412-.17-28.826-.336-43.239-.505-6.15-.069-12.971-.615-19.1-.22-1.862.12-2.837.65-4.353 1.287-3.176 1.333-6.352 2.669-9.529 4.002l-33.268 13.974c-22.128 9.297-44.255 18.591-66.382 27.885-1.349.568-2.698 1.132-4.047 1.7l24.979-43.606 3.595-6.276-43.792-.509c-7.801-.09-15.609-.131-23.407-.272-13.107-.236-25.475-2.3-36.483-6.302-31.566-11.47-45.637-33.657-45.403-53.662.105-8.883 1.878-17.845 2.955-26.703l6.456-53.078 2.841-23.36c.761-6.26 1.508-12.414 4.04-18.553 4.415-10.708 12.868-21.066 25.875-29.475 9.018-5.831 20.373-10.774 33.5-13.497 11.343-2.356 23.003-2.444 34.913-2.729l40.018-.96c23.337-.558 46.674-1.12 70.01-1.678 44.024-1.054 88.049-2.11 132.07-3.165 33.288-.797 66.57-1.593 99.852-2.393 24.911-.596 49.823-1.192 74.734-1.791 19.631-.467 39.101-1.205 57.925 2.635 38.5 7.85 63.103 28.343 72.137 49.584 4.715 11.088 5.51 22.6 3.021 33.889zm31.703-10.144c-.99-33.754-40.125-67.52-98.994-79.182-17.41-3.448-34.85-4.138-53.176-3.576-12.25.373-24.505.75-36.755 1.123-45.84 1.402-91.687 2.782-137.54 4.143-71.873 2.136-143.754 4.225-215.642 6.245-12.887.361-25.775.728-38.663 1.086-5.478.153-10.972.254-16.443.473-11.275.452-22.227 2.296-32.057 5.352-24.749 7.694-41.327 21.724-49.699 36.344-5.171 9.034-6.466 18.136-7.538 27.49-1.696 14.818-3.409 29.635-5.117 44.453a7647.03 7647.03 0 0 1-4.028 34.384c-.956 7.977-2.522 16.04-2.475 24.04.098 16.63 9.696 33.85 29.748 46.55 10.376 6.572 23.759 11.845 39.08 14.298 7.559 1.21 15.158 1.505 22.992 1.615a71877.234 71877.234 0 0 1 54.519.778c-9.497 16.27-18.993 32.54-28.49 48.807-1.539 2.634-3.703 5.018-5.883 7.528 29.29-9.062 58.58-18.127 87.87-27.19 15.419-4.77 30.836-9.54 46.255-14.315 1.04-.32 2.246-.853 3.396-1.048 2.33-.395 6.23.151 8.761.233 6.315.2 12.631.395 18.948.577 23.634.69 47.276 1.289 70.917 1.822 44.33 1.004 88.672 1.829 133.02 2.538 16.031.254 32.069.498 48.1.709 15.18.197 30.044-.53 44.611-3.065 40.938-7.123 72.715-25.282 90.011-46.454 10.19-12.48 14.035-25.454 16.787-38.898a5222.997 5222.997 0 0 0 15.34-77.977c1.184-6.29 2.443-12.547 2.145-18.883" style="fill:#000;fill-opacity:1;fill-rule:nonzero;stroke:none;stroke-width:.0423634" transform="translate(-661.273 -803.125)"/><path d="M666.864 897.676a3.55 3.55 0 0 1-.544-.045c-1.457-.242-2.396-1.393-2.097-2.574 5.119-20.225 13.801-36.928 25.804-49.647 9.681-10.264 21.52-17.966 35.187-22.902 23.293-8.403 43.568-5.84 44.42-5.726 1.468.193 2.462 1.316 2.222 2.505-.241 1.188-1.623 1.992-3.09 1.799-.197-.025-19.755-2.46-41.61 5.497-28.898 10.526-48.836 34.505-57.658 69.347-.26 1.033-1.382 1.746-2.634 1.746M663.965 843.29a3.18 3.18 0 0 1-1.283-.266c-1.307-.574-1.791-1.898-1.082-2.956 12.157-18.13 29.087-30.517 50.32-36.809 1.397-.414 2.943.164 3.454 1.295.511 1.132-.206 2.386-1.603 2.8-19.964 5.92-35.925 17.626-47.437 34.793-.488.73-1.414 1.143-2.37 1.143" style="fill:#000;fill-opacity:1;fill-rule:nonzero;stroke:none;stroke-width:.0455516" transform="translate(-661.273 -803.125)"/></svg>