<svg xmlns="http://www.w3.org/2000/svg" xmlns:xlink="http://www.w3.org/1999/xlink" width="264" height="280"><defs><path id="c" d="M12 160c0 66.274 53.726 120 120 120s120-53.726 120-120h12V0H0v160h12Z"/><path id="e" d="M124 144.611V163h4c39.765 0 72 32.235 72 72v9H0v-9c0-39.765 32.235-72 72-72h4v-18.389c-17.237-8.189-29.628-24.924-31.695-44.73C38.48 99.058 34 94.052 34 88V74c0-5.946 4.325-10.882 10-11.834V56c0-30.928 25.072-56 56-56s56 25.072 56 56v6.166c5.675.952 10 5.888 10 11.834v14c0 6.052-4.48 11.058-10.305 11.881-2.067 19.806-14.458 36.541-31.695 44.73Z"/><circle id="a" cx="120" cy="120" r="120"/></defs><g fill="none" fill-rule="evenodd"><g transform="translate(12 40)"><mask id="b" fill="#fff"><use xlink:href="#a"/></mask><use xlink:href="#a" fill="#E6E6E6"/><g fill="#65C9FF" mask="url(#b)"><path d="M0 0h240v240H0z"/></g></g><mask id="d" fill="#fff"><use xlink:href="#c"/></mask><g mask="url(#d)"><g transform="translate(32 36)"><mask id="f" fill="#fff"><use xlink:href="#e"/></mask><use xlink:href="#e" fill="#D0C6AC"/><g fill="#D08B5B" mask="url(#f)"><path d="M0 0h264v280H0z"/></g><path fill="#000" fill-opacity=".1" d="M156 79v23c0 30.928-25.072 56-56 56s-56-25.072-56-56V79v15c0 30.928 25.072 56 56 56s56-25.072 56-56V79Z" mask="url(#f)"/></g><g transform="translate(0 170)"><defs><path id="g" d="M171.32 29.936C205.706 35.366 232 65.14 232 101.052V110H32v-8.948c0-35.914 26.294-65.686 60.682-71.116a23.896 23.896 0 0 0 7.554 13.603l29.085 26.229a4 4 0 0 0 5.358 0l29.085-26.229a24 24 0 0 0 1.234-1.196 23.888 23.888 0 0 0 6.322-12.407Z"/></defs><mask id="h" fill="#fff"><use xlink:href="#g"/></mask><use xlink:href="#g" fill="#E6E6E6"/><g fill="#FFF" mask="url(#h)"><path d="M0 0h264v110H0z"/></g></g><g fill="#000"><g transform="translate(78 134)"><defs><path id="i" d="M35.118 15.128C36.176 24.62 44.226 32 54 32c9.804 0 17.874-7.426 18.892-16.96.082-.767-.775-2.04-1.85-2.04H37.088c-1.08 0-2.075 1.178-1.97 2.128Z"/></defs><mask id="j" fill="#fff"><use xlink:href="#i"/></mask><use xlink:href="#i" fill-opacity=".7"/><rect width="31" height="16" x="39" y="2" fill="#FFF" mask="url(#j)" rx="5"/><g fill="#FF4F6D" mask="url(#j)"><g transform="translate(38 24)"><circle cx="11" cy="11" r="11"/><circle cx="21" cy="11" r="11"/></g></g></g><path fill-opacity=".16" d="M120 130c0 4.418 5.373 8 12 8s12-3.582 12-8"/><g fill-opacity=".6"><path d="M103.241 110.346a6 6 0 1 0 10.699 2.8 1.998 1.998 0 0 0-.125-.739 7.509 7.509 0 0 0-.144-.372 6.007 6.007 0 0 0-1.646-2.484c-2.126-2.234-5.519-3.551-9.027-3.551-4.834 0-8.991 2.649-10.838 6.447-.54 1.111.387 1.853 1.278 1.125 2.436-1.993 5.82-3.228 9.56-3.228.08 0 .162 0 .243.002ZM161.241 110.346a6 6 0 1 0 10.699 2.8 1.998 1.998 0 0 0-.125-.739 7.509 7.509 0 0 0-.144-.372 6.007 6.007 0 0 0-1.646-2.484c-2.126-2.234-5.519-3.551-9.027-3.551-4.834 0-8.991 2.649-10.838 6.447-.54 1.111.387 1.853 1.278 1.125 2.436-1.993 5.82-3.228 9.56-3.228.08 0 .162 0 .243.002Z"/></g><g fill-opacity=".6" fill-rule="nonzero"><path d="M91.976 99.128c1.495-9.523 14.083-16.02 23.188-11.827a2 2 0 0 0 1.672-3.633c-11.487-5.29-26.9 2.664-28.812 14.84a2 2 0 1 0 3.952.62ZM172.024 99.128c-1.495-9.523-14.082-16.02-23.187-11.827a2 2 0 0 1-1.673-3.633c11.487-5.29 26.9 2.664 28.812 14.84a2 2 0 0 1-3.952.62Z"/></g></g><defs><path id="k" d="M0 0h264v280H0z"/><path id="o" d="M6 28c-5.076.071-6-1.006-6-5C0 17.344 4.04 6.778 8 2c1.176-2.17 3.619-3.432 3 1-2.66 8.477.417 24.914-5 25Zm114 0c-5.417-.086-2.34-16.523-5-25-.619-4.432 1.824-3.17 3-1 3.96 4.778 8 15.344 8 21 0 3.994-.924 5.071-6 5Z"/></defs><mask id="l" fill="#fff"><use xlink:href="#k"/></mask><g mask="url(#l)"><g transform="translate(48 72)"><defs><path id="m" d="M105.018 94.13c-3.868 5.591-6.76 1.817-10.88-1.254-2.481-1.849-6.177-4.148-9.634-4.035-3.456-.113-7.152 2.186-9.633 4.035-4.12 3.07-7.013 6.845-10.88 1.254-2.903-4.198-1.688-11.256 1.024-15.227 3.859-5.652 9.094-2.918 14.947-3.563 1.592-.175 3.19-.617 4.542-1.34 1.352.723 2.95 1.165 4.542 1.34 5.854.645 11.089-2.089 14.948 3.563 2.712 3.97 3.926 11.03 1.024 15.227M140.39 26c-3.424 14.075-4.998 28.434-7.481 42.671a319.166 319.166 0 0 1-1.685 8.879c-.127.62-.251 2.923-.862 3.214-1.851.884-5.624-3.817-6.633-4.879-2.533-2.666-5.045-5.356-8.13-7.448-6.235-4.227-13.535-6.726-21.13-7.32-3.178-.248-7.475.186-10.47 1.993-2.995-1.807-7.292-2.24-10.47-1.992-7.596.593-14.895 3.092-21.13 7.32-3.085 2.091-5.597 4.781-8.13 7.447-1.01 1.062-4.782 5.763-6.633 4.88-.61-.292-.735-2.595-.862-3.215a319.164 319.164 0 0 1-1.685-8.879C32.607 54.434 31.034 40.075 27.61 26c-.997 0-1.871 18.748-1.983 20.495-.452 7.094-.98 14.03-.305 21.131 1.164 12.249 2.377 27.608 11.71 36.962 8.434 8.451 20.678 10.218 31.24 15.553 1.36.687 3.163 1.535 5.108 2.23 2.049 1.563 6.113 2.629 10.794 2.629 4.91 0 9.142-1.173 11.08-2.862a47.143 47.143 0 0 0 4.475-1.997c10.56-5.336 22.805-7.102 31.238-15.553 9.334-9.354 10.547-24.713 11.712-36.962.674-7.1.146-14.037-.306-21.131C142.26 44.748 141.387 26 140.39 26Z"/></defs><mask id="n" fill="#fff"><use xlink:href="#m"/></mask><use xlink:href="#m" fill="#252E32"/><g fill="#ECDCBF" mask="url(#n)"><path d="M-32 0h264v244H-32z"/></g></g><g transform="translate(69 74)"><mask id="p" fill="#fff"><use xlink:href="#o"/></mask><use xlink:href="#o" fill="#9E7A7A"/><g fill="#ECDCBF" mask="url(#p)"><path d="M0 0h264v280H0z"/></g></g><g transform="translate(61 85)"><defs><filter id="q" width="101.6%" height="108.3%" x="-.8%" y="-2.1%" filterUnits="objectBoundingBox"><feOffset dy="2" in="SourceAlpha" result="shadowOffsetOuter1"/><feColorMatrix in="shadowOffsetOuter1" values="0 0 0 0 0 0 0 0 0 0 0 0 0 0 0 0 0 0 0.1 0"/></filter><path id="r" d="M80.465 16.394C84.38 8.46 92.553 3 102 3c8.92 0 16.703 4.866 20.84 12.088.21-.057.432-.088.66-.088h8a2.5 2.5 0 1 1 0 5h-6.537A23.998 23.998 0 0 1 126 27c0 13.255-10.745 24-24 24S78 40.255 78 27c0-1.422.124-2.815.36-4.169C78.277 18.455 74.915 15 70.863 15c-3.736 0-6.887 2.94-7.42 6.83.365 1.665.558 3.395.558 5.17 0 13.255-10.745 24-24 24S16 40.255 16 27c0-2.435.363-4.785 1.037-7H10.5a2.5 2.5 0 1 1 0-5h8c.228 0 .45.03.66.088C23.297 7.866 31.08 3 40 3c9.352 0 17.455 5.35 21.416 13.155C63.493 13.039 66.949 11 70.862 11c4.013 0 7.545 2.144 9.603 5.394ZM40 47c11.046 0 20-8.954 20-20S51.046 7 40 7s-20 8.954-20 20 8.954 20 20 20Zm62 0c11.046 0 20-8.954 20-20s-8.954-20-20-20-20 8.954-20 20 8.954 20 20 20Z"/></defs><use xlink:href="#r" fill="#000" filter="url(#q)"/><use xlink:href="#r" fill="#252C2F"/></g></g></g></g></svg>